<?xml version="1.0" encoding="utf-8"?>
<svg xmlns="http://www.w3.org/2000/svg" xmlns:xlink="http://www.w3.org/1999/xlink" version= "1.1" width="1920px" height="1300px" viewBox="-600 63 1920 1300">
<g id="layer1">
<g style="fill:rgb(0,128,128); fill-opacity:1.0; stroke-linejoin: miter">
<path d="M-600.001,61.38933C-600.4279,61.38933,-600.8373,61.55892,-601.13916,61.860794C-601.44104,62.162666,-601.61066,62.57209,-601.61066,62.999L-601.6097,1363.0C-601.6097,1363.889,-600.889,1364.6096,-600.0,1364.6096L1320.001,1364.6106C1320.4279,1364.6106,1320.8373,1364.441,1321.1392,1364.1392C1321.441,1363.8373,1321.6106,1363.4279,1321.6106,1363.001L1321.6096,63.0C1321.6096,62.111004,1320.889,61.39033,1320.0,61.39033L-600.001,61.38933 Z"/>
</g>
<g style="fill:rgb(0,0,0); fill-opacity:0.25490198; stroke-linejoin: miter">
<path d="M1128.7275,1247.2498L1122.0703,1248.7654Q1101.035,1250.8014,1043.9872,1252.4749Q1015.4632,1253.3116,977.9361,1254.058Q964.7994,1254.4877,845.09766,1256.0928Q742.32764,1257.3124,623.33673,1257.8876Q563.84125,1258.1752,500.29044,1258.3015Q471.04953,1258.4655,300.5139,1258.3184Q139.54778,1257.7949,114.451096,1257.5248Q56.865562,1257.1569,5.193781,1256.6509Q-98.149765,1255.6392,-177.8381,1254.0758Q-355.75446,1250.2933,-325.60648,1246.2146Q-312.35535,1244.1836,-260.0021,1242.4677Q-233.82547,1241.6099,-197.8733,1240.8306Q-185.42767,1240.3828,-69.1804,1238.6877Q124.01321,1236.1855,399.46985,1236.0791Q537.19794,1236.1323,654.36053,1236.7844Q712.94196,1237.1106,766.3816,1237.5865Q895.4827,1238.9071,915.1331,1239.351Q1006.5886,1240.7518,1058.9417,1242.4677Q1085.1183,1243.3257,1101.5194,1244.2623Q1133.9685,1246.6731,1128.7275,1247.2498"/>
</g>
<g style="fill:rgb(0,174,199); fill-opacity:1.0; stroke-linejoin: miter">
<path d="M-119.972534,477.30396C-119.999405,477.30396,-120.026184,477.30484,-120.052826,477.30664L-120.054276,477.30664C-136.66922,477.34857,-149.38565,490.1736,-149.38565,506.79785L-149.38565,1101.1113C-149.38565,1117.7627,-136.62366,1130.5219,-119.975334,1130.56L-119.972534,1130.56L895.2465,1130.5232L895.2464,1130.5232C911.897,1130.5232,924.65936,1117.7623,924.65936,1101.1113L924.65936,506.7954C924.65936,490.16943,911.9406,477.34128,895.3192,477.34128L895.27295,477.34128C895.2665,477.34128,895.2568,477.34128,895.24255,477.3414L-119.972534,477.30396 Z"/>
</g>
<g style="fill:rgb(215,237,249); fill-opacity:1.0; stroke-linejoin: miter">
<path d="M416.83493,652.6282L414.22183,675.23724Q403.31473,823.358,329.40247,913.21545Q268.43027,993.9928,16.101227,1130.6176Q214.10474,1133.9427,622.8004,1129.7245L744.49866,1121.58Q627.5115,1045.3774,573.9968,1000.6201Q501.3233,937.48505,484.07254,907.4942Q424.487,830.38586,416.83493,652.6282"/>
</g>
<g style="fill:rgb(171,193,206); fill-opacity:1.0; stroke-linejoin: miter">
<path d="M410.78018,745.0823L410.66995,766.675Q416.96667,909.0082,344.7518,985.92255Q286.0158,1055.8313,18.093039,1153.1625Q282.5516,1166.5165,813.65106,1154.4812Q535.71063,1055.5847,475.60175,985.5112Q458.8946,968.4323,447.40515,949.98865Q439.1108,941.43365,422.3057,892.2075Q407.7536,842.392,410.78018,745.0823"/>
</g>
<g style="fill:rgb(215,237,249); fill-opacity:1.0; stroke-linejoin: miter">
<path d="M565.2468,984.0762C562.9735,975.6021,561.8898,966.8623,562.02155,958.0078C562.81537,905.6557,606.05005,863.7105,658.4029,864.5031C680.18195,864.82806,701.3428,872.71375,717.9876,886.7022C732.79034,899.1415,743.49347,915.90686,748.5594,934.4115C783.641,931.66754,814.97815,954.3758,824.3837,986.9708C829.70605,985.8423,835.135,985.31396,840.5988,985.3995C880.88916,986.0088,913.17615,1019.0472,912.5675,1059.338C911.9564,1099.6327,878.6858,1131.6761,838.39386,1131.0673L583.29144,1127.2098C542.9998,1126.5999,510.71558,1093.5588,511.32483,1053.2678C511.82336,1020.3038,534.06744,992.4638,565.2468,984.0762 Z"/>
</g>
<g style="fill:rgb(215,237,249); fill-opacity:1.0; stroke-linejoin: miter">
<path d="M613.2938,996.3034C611.0204,987.82935,609.93677,979.08936,610.0685,970.23486C610.8623,917.8828,654.09686,875.93756,706.44965,876.7303C728.22876,877.0551,749.3895,884.94086,766.0344,898.9292C780.8372,911.3686,791.5403,928.1338,796.60614,946.6386C831.68774,943.8946,863.02515,966.60297,872.43066,999.19806C877.753,998.0695,883.1819,997.5412,888.64575,997.62665C928.936,998.23596,961.22296,1031.2744,960.6143,1071.5652C960.00323,1111.8599,926.7326,1143.9034,886.44055,1143.2943L631.3383,1139.437C591.0467,1138.8271,558.7625,1105.7861,559.37177,1065.4949C559.8703,1032.531,582.1144,1004.691,613.2938,996.3034 Z"/>
</g>
<g style="fill:rgb(171,193,206); fill-opacity:1.0; stroke-linejoin: miter">
<path d="M522.5741,1035.2001L522.5741,1035.2012C520.1829,1026.7587,518.97546,1018.0349,518.98596,1009.17944C519.0482,956.8212,561.6963,914.281,614.0548,914.3408C635.8364,914.3658,657.10486,921.95276,673.943,935.70764C688.9175,947.94006,699.85315,964.55426,705.1764,982.98645C740.21643,979.7541,771.867,1002.024,781.7256,1034.4846C787.0318,1033.2822,792.45264,1032.681,797.9173,1032.6879C838.212,1032.7383,870.9574,1065.3213,870.90894,1105.6165C870.8605,1145.9158,861.9441,1152.3563,821.6476,1152.3086L570.7154,1151.83C530.4194,1151.7812,469.5733,1145.4324,469.6213,1105.136C469.66058,1072.1688,491.5146,1044.022,522.5741,1035.2001L522.5741,1035.2012 Z"/>
</g>
<g style="fill:rgb(215,237,249); fill-opacity:1.0; stroke-linejoin: miter">
<path d="M299.25043,987.4174C301.64163,978.9758,302.84692,970.2522,302.83853,961.3967C302.7741,909.0384,260.12817,866.4949,207.76962,866.5583C185.98805,866.5797,164.71947,874.16986,147.88158,887.9248C132.9068,900.157,121.971344,916.7716,116.648155,935.20386C81.608154,931.97156,49.957443,954.24133,40.098892,986.702C34.792698,985.49963,29.371805,984.89594,23.907238,984.9053C-16.387495,984.95325,-49.131718,1017.5386,-49.084297,1057.834C-49.034782,1098.1332,-16.213661,1130.6375,24.08285,1130.5896L279.2139,1130.2863C319.50998,1130.2375,352.25122,1097.6495,352.2033,1057.3534C352.16397,1024.3859,330.30997,996.23926,299.25043,987.4174 Z"/>
</g>
<g style="fill:rgb(215,237,249); fill-opacity:1.0; stroke-linejoin: miter">
<path d="M176.17728,1005.26764C178.5685,996.82623,179.7738,988.1025,179.76538,979.24713C179.70097,926.8887,137.05502,884.3451,84.696465,884.4085C62.914894,884.43,41.646313,892.0201,24.80844,905.7752C9.833664,918.0074,-1.1018071,934.6218,-6.42498,953.05414C-41.464996,949.8218,-73.11571,972.09155,-82.97424,1004.5523C-88.28045,1003.3499,-93.70135,1002.7462,-99.16592,1002.75555C-139.46065,1002.80365,-172.20486,1035.3889,-172.15744,1075.6842C-172.10793,1115.9834,-139.28679,1148.4878,-98.990295,1148.4401L156.14073,1148.1365C196.43684,1148.0878,229.17807,1115.5,229.13016,1075.2036C229.09082,1042.2361,207.23685,1014.0895,176.17728,1005.26764 Z"/>
</g>
<g style="fill:rgb(171,193,206); fill-opacity:1.0; stroke-linejoin: miter">
<path d="M307.7816,1018.6087C310.1728,1010.1671,311.3781,1001.44336,311.36972,992.5879C311.3053,940.2297,268.65933,897.68616,216.30078,897.74945C194.51921,897.7709,173.25063,905.36115,156.41277,919.1161C141.43799,931.34827,130.5025,947.9629,125.17935,966.395C90.13932,963.1627,58.48861,985.4326,48.630074,1017.8934C43.323875,1016.6909,37.90297,1016.0871,32.4384,1016.09644C-7.8563166,1016.14453,-40.600544,1048.7299,-40.553116,1089.0253C-40.503613,1129.3243,-7.682481,1161.8286,32.61403,1161.7809L287.7451,1161.4775C328.04117,1161.4288,360.78238,1128.8408,360.73447,1088.5447C360.69513,1055.5771,338.84116,1027.4304,307.7816,1018.6087 Z"/>
</g>
<g style="fill:rgb(34,43,50); fill-opacity:1.0; stroke-linejoin: miter">
<path d="M-119.97258,440.69336C-156.25465,440.69336,-185.9988,470.5125,-185.9988,506.7954L-185.9988,1101.1113C-185.9988,1137.3922,-156.25465,1167.1366,-119.97258,1167.1366L895.2464,1167.174C931.52844,1167.1366,961.2726,1137.3922,961.2726,1101.1113L961.2726,506.79785C961.2726,470.51477,931.52893,440.69547,895.2464,440.69547L-119.97258,440.73254 Z M-119.97258,478.50476L895.2464,478.54214C911.2344,478.50476,923.45856,490.80255,923.45856,506.7954L923.45856,1101.1113C923.45856,1117.099,911.234,1129.3225,895.2464,1129.3225L-119.97258,1129.3594C-135.96043,1129.3225,-148.18486,1117.099,-148.18486,1101.1113L-148.18486,506.79785C-148.18486,490.80518,-135.96011,478.5073,-119.97258,478.5073 Z"/>
</g>
<g style="fill:rgb(34,43,50); fill-opacity:1.0; stroke-linejoin: miter">
<path d="M-246.47754,1178.0526C-246.47754,1217.9663,-218.9153,1250.1123,-184.69022,1250.1123L959.96466,1250.1498C994.18884,1250.1123,1021.7516,1217.971,1021.7516,1178.0526L-246.47784,1178.0896 Z"/>
</g>
<g style="fill:rgb(0,0,0); fill-opacity:1.0; stroke-linejoin: miter">
<path d="M293.19955,1193.1788L482.0744,1193.2166C484.98862,1193.1788,487.33487,1195.5238,487.33487,1198.4421C487.33487,1201.3552,484.98862,1203.7029,482.0744,1203.7029L293.19955,1203.7402C290.28522,1203.7029,287.93915,1201.3578,287.93915,1198.4421C287.93915,1195.529,290.28522,1193.1788,293.19955,1193.1788 Z"/>
</g>
<g style="fill:rgb(255,206,84); fill-opacity:1.0; stroke-linejoin: miter">
<path d="M409.6827,805.0322C407.376,800.17725,404.48187,793.96606,401.62057,787.3923C390.8065,762.6068,389.18695,753.58374,389.1922,750.404C389.18665,745.6317,390.5324,741.0677,393.07498,737.1958L393.95367,735.85583L393.81094,710.86786L425.8613,713.1746L425.3727,735.81757L426.26785,737.1964C428.8161,741.0627,430.15613,745.632,430.16724,750.40985C430.1563,753.5841,428.55246,762.6124,417.73935,787.3873C414.86746,793.9603,411.97824,800.1884,409.6827,805.0322 Z"/>
</g>
<g style="fill:rgb(246,187,66); fill-opacity:1.0; stroke-linejoin: miter">
<path d="M388.49524,705.17816L388.65442,734.29083C385.66696,738.8382,383.90366,744.39056,383.90396,750.4096C383.90353,765.7864,409.6771,817.15265,409.6771,817.15265C409.6771,817.15265,435.45065,765.7976,435.4559,750.4039C435.4504,744.40155,433.6878,738.83795,430.6945,734.2856L431.25406,708.2648L388.49524,705.17816 Z M420.11707,734.0542L420.0514,737.3494L421.85794,740.10077C423.82977,743.1053,424.8737,746.6748,424.8732,750.4091C424.8732,751.63934,424.29654,759.12463,412.90683,785.2338C411.81372,787.7216,410.7319,790.1545,409.67218,792.4774C408.6178,790.1491,407.53052,787.7216,406.4537,785.23865C395.05795,759.1244,394.4756,751.6448,394.48648,750.4035C394.48135,746.6636,395.53052,743.0993,397.50198,740.1064L399.2593,737.4267L399.24286,734.22516L399.1332,716.5634L420.45804,718.09576L420.11707,734.0542 Z"/>
</g>
<g style="fill:rgb(255,0,10); fill-opacity:1.0; stroke-linejoin: miter">
<path d="M449.37314,716.3212C450.48804,713.24005,451.54202,710.0982,452.5361,706.9187L464.73944,633.7121C464.85477,630.3343,464.9096,626.9405,464.92093,623.54663C464.91003,621.5809,464.89902,619.6142,464.85507,617.6589C484.1478,637.28125,496.51575,667.48737,496.52173,701.3668C496.51636,712.6524,495.1484,723.5208,492.6057,733.7411C492.58914,733.8125,492.48447,734.2138,492.48447,734.2138C491.83667,736.3997,489.80966,737.99774,487.41547,737.99786C486.61896,737.99225,485.8665,737.8112,485.19656,737.49274C485.19656,737.49274,484.67493,737.2348,484.47144,737.0972L449.07578,717.1233C449.18094,716.85364,449.26874,716.5901,449.37314,716.3212 Z"/>
</g>
<g style="fill:rgb(255,0,10); fill-opacity:1.0; stroke-linejoin: miter">
<path d="M356.05453,617.64246C356.0158,619.603,356.00528,621.5693,355.99936,623.5408C356.00458,626.9293,356.05948,630.3231,356.18033,633.6951C349.75497,642.22943,368.37836,706.91833,368.37836,706.91833C369.37796,710.09296,370.4275,713.2288,371.542,716.3207C371.6355,716.58997,371.73956,716.8479,371.833,717.1172L336.4315,737.09674C336.23355,737.22845,335.7063,737.4921,335.7063,737.4921C335.03638,737.8105,334.28958,737.98676,333.4822,737.9919C331.08792,737.9919,329.0722,736.39374,328.4188,734.2021C328.4188,734.2021,328.31436,733.8124,328.3035,733.7355C325.75488,723.52045,324.38205,712.65765,324.38248,701.36633C324.38248,667.4704,336.75027,637.2653,356.05453,617.64246 Z"/>
</g>
<g style="fill:rgb(255,255,255); fill-opacity:1.0; stroke-linejoin: miter">
<path d="M352.6277,621.6185C352.6325,664.08746,361.579,703.65625,376.54465,735.6911C377.41238,737.4595,379.20255,738.6787,381.30618,738.67346L439.5971,738.6843C441.69504,738.67346,443.4907,737.4597,444.35852,735.69135C459.32953,703.6513,468.27597,664.09296,468.27118,621.624C468.28195,555.64404,447.00034,497.32578,414.44424,462.00137C413.47772,460.947,412.00037,460.19427,410.45697,460.18903C408.90268,460.19464,407.4312,460.94165,406.45364,462.00687C373.89804,497.33026,352.62766,555.64935,352.6277,621.6185 Z"/>
</g>
<g style="fill:rgb(67,74,84); fill-opacity:1.0; stroke-linejoin: miter">
<path d="M425.4117,609.6294C421.41373,613.62744,416.0976,615.82385,410.45175,615.8242C404.80066,615.81866,399.4842,613.6218,395.48615,609.6238C391.48804,605.62573,389.29126,600.3093,389.28564,594.65814C389.28564,589.0128,391.49335,583.68536,395.48056,579.6983C399.47873,575.7002,404.79474,573.5037,410.4514,573.4925C422.12222,573.49774,431.61758,582.9931,431.61746,594.65857C431.60657,600.3149,429.40976,605.6313,425.42264,609.61847C425.4117,609.6294,425.4117,609.6294,425.4117,609.6294 Z"/>
</g>
<g style="fill:rgb(67,74,84); fill-opacity:1.0; stroke-linejoin: miter">
<path d="M425.41165,673.11615C421.41367,677.11426,416.1031,679.31635,410.45175,679.311C404.80597,679.31146,399.4839,677.10913,395.4911,673.11615C391.49304,669.11816,389.29102,663.7964,389.2857,658.14496C389.2857,652.4995,391.4824,647.18317,395.48056,643.1851C399.47897,639.18665,404.79504,636.99023,410.4518,636.97894C422.12228,636.9847,431.61792,646.4803,431.61777,658.1451C431.61218,663.8075,429.4101,669.1177,425.41165,673.11615L425.41205,673.1165 Z"/>
</g>
<g style="fill:rgb(64,190,174); fill-opacity:1.0; stroke-linejoin: miter">
<path d="M410.45697,568.2041C403.3891,568.20953,396.73816,570.9612,391.74075,575.9585C386.75403,580.9454,384.00308,587.5957,383.99734,594.6639C384.00302,601.7209,386.74875,608.37714,391.74075,613.369C396.73853,618.3669,403.3891,621.10767,410.4517,621.11816C417.5193,621.1126,424.165,618.35547,429.15146,613.36896C434.14914,608.37146,436.90616,601.72644,436.91144,594.6585C436.91187,580.07184,425.0441,568.2041,410.45697,568.2041 Z M426.32343,594.6585C426.31784,599.0464,424.5496,603.0114,421.67172,605.8894C418.80508,608.7559,414.82877,610.5356,410.45206,610.52985C401.68698,610.5299,394.5803,603.4233,394.5803,594.65814C394.57513,590.28125,396.35962,586.3105,399.2263,583.444C402.10422,580.5661,406.06357,578.79205,410.45175,578.7868C419.2167,578.78723,426.32324,585.8937,426.32343,594.6585 Z"/>
</g>
<g style="fill:rgb(64,190,174); fill-opacity:1.0; stroke-linejoin: miter">
<path d="M391.7464,639.45105C386.74875,644.44867,384.00308,651.08246,383.9971,658.15094C383.9915,665.2186,386.74838,671.8644,391.74603,676.86194C396.73846,681.8544,403.37796,684.60583,410.4517,684.6057C417.52,684.6002,424.1598,681.8596,429.15738,676.86194C434.15555,671.864,436.9069,665.21326,436.9125,658.14496C436.91257,643.5588,425.04416,631.6903,410.4578,631.6903C403.38956,631.696,396.74445,634.453,391.7464,639.45105 Z M426.32382,658.14496C426.32382,662.5384,424.5496,666.4983,421.67166,669.3761C418.80502,672.2428,414.83432,674.028,410.45212,674.0168C401.6863,674.0169,394.58005,666.91046,394.5804,658.14496C394.57483,653.76776,396.35956,649.79736,399.22635,646.93085C402.10422,644.05286,406.06393,642.2787,410.45206,642.2733C419.217,642.273,426.32336,649.37946,426.32382,658.14496 Z"/>
</g>
<g style="fill:rgb(255,0,10); fill-opacity:1.0; stroke-linejoin: miter">
<path d="M449.983,520.5836L370.9267,520.5891C380.02676,497.4846,392.15842,477.52127,406.45377,462.00687C407.4312,460.94165,408.90268,460.19464,410.45697,460.18903C412.00037,460.19427,413.47772,460.947,414.44424,462.00137C428.7561,477.52158,440.87723,497.4849,449.983,520.5836 Z"/>
</g>
<g style="fill:rgb(215,237,249); fill-opacity:1.0; stroke-linejoin: miter">
<path d="M436.0138,961.34503L436.0138,961.3453L436.0138,961.3455L436.0138,961.34503"/>
</g>
<g style="fill:rgb(215,237,249); fill-opacity:1.0; stroke-linejoin: miter">
<path d="M517.3935,1328.6667L517.39343,1328.6675L517.39325,1328.6683L517.3935,1328.6667"/>
</g>
</g>
</svg>